<svg width="60" height="60" viewBox="0 0 60 60" fill="none" xmlns="http://www.w3.org/2000/svg">
<path d="M7.5 12.5V52.5H22.5V48.75H17.5V45H22.5V41.25H12.5V37.5H22.5V33.75H17.5V30H22.5V26.25H12.5V22.5H22.5V12.5H26.25V22.5H30V17.5H33.75V22.5H37.5V12.5H41.25V22.5H45V17.5H48.75V22.5H52.5V7.5H12.5C11.1739 7.5 9.90215 8.02678 8.96447 8.96447C8.02678 9.90215 7.5 11.1739 7.5 12.5ZM15 17.5C14.337 17.5 13.7011 17.2366 13.2322 16.7678C12.7634 16.2989 12.5 15.663 12.5 15C12.5 14.337 12.7634 13.7011 13.2322 13.2322C13.7011 12.7634 14.337 12.5 15 12.5C15.663 12.5 16.2989 12.7634 16.7678 13.2322C17.2366 13.7011 17.5 14.337 17.5 15C17.5 15.663 17.2366 16.2989 16.7678 16.7678C16.2989 17.2366 15.663 17.5 15 17.5Z" fill="black"/>
</svg>
