<svg width="69" height="69" viewBox="0 0 69 69" fill="none" xmlns="http://www.w3.org/2000/svg">
<path d="M20.125 31.625H31.625V20.125H37.375V31.625H48.875V37.375H37.375V48.875H31.625V37.375H20.125V31.625Z" fill="black"/>
<path fill-rule="evenodd" clip-rule="evenodd" d="M12.9375 8.625C11.7938 8.625 10.6969 9.07935 9.8881 9.8881C9.07935 10.6969 8.625 11.7938 8.625 12.9375V56.0625C8.625 57.2062 9.07935 58.3031 9.8881 59.1119C10.6969 59.9206 11.7938 60.375 12.9375 60.375H56.0625C57.2062 60.375 58.3031 59.9206 59.1119 59.1119C59.9206 58.3031 60.375 57.2062 60.375 56.0625V12.9375C60.375 11.7938 59.9206 10.6969 59.1119 9.8881C58.3031 9.07935 57.2062 8.625 56.0625 8.625H12.9375ZM57.5 12.9375C57.5 12.5563 57.3486 12.1906 57.079 11.921C56.8094 11.6515 56.4437 11.5 56.0625 11.5H12.9375C12.5563 11.5 12.1906 11.6515 11.921 11.921C11.6515 12.1906 11.5 12.5563 11.5 12.9375V56.0625C11.5 56.4437 11.6515 56.8094 11.921 57.079C12.1906 57.3486 12.5563 57.5 12.9375 57.5H56.0625C56.4437 57.5 56.8094 57.3486 57.079 57.079C57.3486 56.8094 57.5 56.4437 57.5 56.0625V12.9375Z" fill="black"/>
</svg>
