<svg width="70" height="70" viewBox="0 0 70 70" fill="none" xmlns="http://www.w3.org/2000/svg">
<path d="M47.396 32.8125C48.4577 32.8125 49.4493 33.2354 50.266 33.9529C51.8673 34.9212 52.5002 33.8537 52.5002 32.8125V27.7083C52.5002 25.3021 50.5314 23.3333 48.1252 23.3333H40.1043C39.066 23.3333 37.9927 22.7033 38.9639 21.0992C39.6814 20.2825 40.1043 19.2937 40.1043 18.2292C40.1043 15.4087 37.1673 13.125 33.5418 13.125C29.9164 13.125 26.9793 15.4087 26.9793 18.2292C26.9793 19.1042 27.2564 19.9092 27.7231 20.6296C29.2018 22.5925 28.1197 23.3333 26.9793 23.3333H18.9585C16.5522 23.3333 14.5835 25.3021 14.5835 27.7083V32.8125C14.5835 33.9529 15.3243 35.035 17.2902 33.5242C18.0077 33.0896 18.8127 32.8125 19.6877 32.8125C22.5052 32.8125 24.7918 35.7525 24.7918 39.375C24.7918 42.9975 22.5052 45.9375 19.6877 45.9375C18.626 45.9375 17.6343 45.5146 16.8177 44.7971C15.2164 43.8287 14.5835 44.8962 14.5835 45.9375V53.9583C14.5835 56.3646 16.5522 58.3333 18.9585 58.3333H26.9793C28.1197 58.3333 29.2018 57.5925 27.6881 55.6296C27.2367 54.9093 26.9916 54.0791 26.9793 53.2291C26.9793 50.4087 29.9164 48.125 33.5418 48.125C37.1673 48.125 40.1043 50.4087 40.1043 53.2291C40.1043 54.2937 39.6814 55.2825 38.9639 56.0991C37.9927 57.7033 39.066 58.3333 40.1043 58.3333H48.1252C50.5314 58.3333 52.5002 56.3646 52.5002 53.9583V45.9375C52.5002 44.7971 51.7593 43.715 49.7935 45.2258C49.0753 45.6796 48.2455 45.9259 47.396 45.9375C44.5785 45.9375 42.2918 42.9975 42.2918 39.375C42.2918 35.7525 44.5785 32.8125 47.396 32.8125Z" fill="black"/>
</svg>
