<svg width="50" height="50" viewBox="0 0 50 50" fill="none" xmlns="http://www.w3.org/2000/svg">
<g clip-path="url(#clip0_15_10)">
<path d="M3.125 -2.09923e-06L0 3.125L6.875 12.7531C7.16443 13.1586 7.54659 13.489 7.98962 13.7167C8.43266 13.9445 8.92372 14.063 9.42188 14.0625H9.64063C10.0515 14.0622 10.4584 14.1429 10.8381 14.3C11.2177 14.4571 11.5626 14.6875 11.8531 14.9781L20.2125 23.3375L12.0344 31.6312C10.6356 31.2195 9.16013 31.1394 7.72499 31.3972C6.28986 31.655 4.93454 32.2437 3.76656 33.1166C2.59858 33.9895 1.65006 35.1225 0.996261 36.4258C0.342457 37.7291 0.00135063 39.1669 0 40.625C0.00187332 41.9686 0.292512 43.296 0.852223 44.5174C1.41194 45.7389 2.22764 46.8257 3.24408 47.7044C4.26052 48.583 5.45394 49.2329 6.74349 49.61C8.03303 49.9872 9.38857 50.0827 10.7183 49.8902C12.048 49.6977 13.3208 49.2216 14.4504 48.4942C15.58 47.7669 16.5401 46.8052 17.2656 45.6744C17.9912 44.5435 18.4651 43.27 18.6555 41.9399C18.8458 40.6099 18.748 39.2545 18.3687 37.9656L26.6625 29.7875L29.6875 32.8125L28.7344 35.6687C28.5512 36.2193 28.525 36.8099 28.6585 37.3746C28.7921 37.9392 29.0802 38.4555 29.4906 38.8656L39.7094 49.0844C39.9989 49.3756 40.3432 49.6067 40.7223 49.7644C41.1015 49.9221 41.5081 50.0032 41.9187 50.0032C42.3294 50.0032 42.736 49.9221 43.1152 49.7644C43.4943 49.6067 43.8386 49.3756 44.1281 49.0844L49.0844 44.1281C49.3756 43.8386 49.6067 43.4943 49.7644 43.1152C49.9221 42.736 50.0032 42.3294 50.0032 41.9187C50.0032 41.5081 49.9221 41.1015 49.7644 40.7223C49.6067 40.3432 49.3756 39.9989 49.0844 39.7094L38.8656 29.4906C38.4555 29.0802 37.9392 28.7921 37.3746 28.6585C36.81 28.525 36.2193 28.5512 35.6687 28.7344L32.8125 29.6875L29.8125 26.6875L38.1875 18.4281C39.5768 18.799 41.0328 18.8458 42.4431 18.565C43.8534 18.2842 45.1804 17.6833 46.3217 16.8086C47.463 15.9339 48.3883 14.8087 49.026 13.5199C49.6637 12.2311 49.997 10.813 50 9.375C50 8.53437 49.8906 7.71875 49.6812 6.94687L42.9938 13.6375L37.5 12.5L36.3625 7.00937L43.0531 0.318748C41.4615 -0.109186 39.7853 -0.109984 38.1933 0.316432C36.6013 0.742849 35.1499 1.58141 33.9853 2.74759C32.8207 3.91377 31.9841 5.36635 31.5598 6.95892C31.1356 8.55148 31.1387 10.2278 31.5688 11.8187L23.3187 20.1875L14.9781 11.8531C14.392 11.2672 14.0627 10.4725 14.0625 9.64375V9.42187C14.0625 8.92425 13.9438 8.43381 13.716 7.99136C13.4883 7.54891 13.1581 7.16724 12.7531 6.87812L3.125 -2.09923e-06ZM33.2687 33.2687C33.4139 33.1232 33.5863 33.0078 33.7761 32.929C33.966 32.8503 34.1695 32.8097 34.375 32.8097C34.5805 32.8097 34.784 32.8503 34.9739 32.929C35.1637 33.0078 35.3361 33.1232 35.4813 33.2687L44.5875 42.3781C44.8721 42.6728 45.0296 43.0675 45.0261 43.4772C45.0225 43.8869 44.8582 44.2788 44.5685 44.5685C44.2788 44.8582 43.8869 45.0225 43.4772 45.026C43.0675 45.0296 42.6728 44.8721 42.3781 44.5875L33.2687 35.4812C33.1232 35.3361 33.0078 35.1637 32.929 34.9739C32.8503 34.784 32.8097 34.5805 32.8097 34.375C32.8097 34.1695 32.8503 33.966 32.929 33.7761C33.0078 33.5863 33.1232 33.4139 33.2687 33.2687ZM9.375 34.375L10.8469 35.1312L12.5 35.2125L13.3969 36.6031L14.7875 37.5L14.8687 39.1531L15.625 40.625L14.8687 42.0969L14.7875 43.75L13.3969 44.6469L12.5 46.0375L10.8469 46.1187L9.375 46.875L7.90313 46.1187L6.25 46.0375L5.35313 44.6469L3.9625 43.75L3.88125 42.0969L3.125 40.625L3.88125 39.1531L3.9625 37.5L5.35313 36.6031L6.25 35.2125L7.90313 35.1312L9.375 34.375Z" fill="#001A2A"/>
</g>
<defs>
<clipPath id="clip0_15_10">
<rect width="50" height="50" fill="white"/>
</clipPath>
</defs>
</svg>
