<svg width="67" height="67" viewBox="0 0 67 67" fill="none" xmlns="http://www.w3.org/2000/svg">
<path d="M42.5729 13.2604C42.5729 14.5561 42.0581 15.7987 41.142 16.7149C40.2258 17.6311 38.9831 18.1458 37.6874 18.1458C36.3917 18.1458 35.1491 17.6311 34.2329 16.7149C33.3167 15.7987 32.802 14.5561 32.802 13.2604C32.802 11.9647 33.3167 10.7221 34.2329 9.80591C35.1491 8.88971 36.3917 8.375 37.6874 8.375C38.9831 8.375 40.2258 8.88971 41.142 9.80591C42.0581 10.7221 42.5729 11.9647 42.5729 13.2604ZM34.3793 45.1873L36.2832 45.0505C36.3493 43.6181 36.0465 42.1927 35.4038 40.9108C34.7611 39.6289 33.8001 38.5335 32.6127 37.7295C31.4253 36.9256 30.0513 36.44 28.6225 36.3192C27.1936 36.1984 25.7576 36.4466 24.4521 37.0398C24.5122 38.645 24.6783 39.9376 24.9267 40.6271C26.8306 45.9187 34.3793 45.1873 34.3793 45.1873Z" fill="black"/>
<path fill-rule="evenodd" clip-rule="evenodd" d="M53.515 52.2083C54.7713 55.1033 50.4414 57.2668 48.7231 54.6706C47.0034 52.0743 42.7406 44.5871 42.7406 44.5871L41.8752 44.6499V44.6667C41.8752 52.3758 35.626 58.625 27.9168 58.625C20.2076 58.625 13.9585 52.3758 13.9585 44.6667C13.9585 38.6771 17.7314 33.567 23.0314 31.5877V23.3802L19.4022 20.6583L21.0772 18.425L25.8231 21.9844V25.0524C26.1748 23.9567 26.6006 23.0075 27.1072 22.2915C29.9827 18.231 30.5452 17.9323 33.7179 18.231C36.8906 18.5311 42.2451 29.1129 42.2451 29.1129C42.2451 29.1129 48.9869 30.7111 51.565 31.6086C54.1431 32.5076 52.5226 36.0348 50.8699 35.9692C49.2186 35.9022 40.1625 35.0033 38.9397 34.3054C37.717 33.6061 35.6679 30.2435 35.6679 30.2435L35.4669 32.9235C37.0333 33.9336 38.3829 35.2456 39.4366 36.783C41.9533 37.0021 44.812 37.2325 45.6481 37.2325C47.2352 37.2325 47.5981 38.331 47.5981 38.331C47.5981 38.331 52.2588 49.3134 53.515 52.2083ZM35.4501 36.4243C33.3943 34.5397 30.7057 33.496 27.9168 33.5C26.7423 33.4987 25.575 33.6828 24.458 34.0458C22.1244 34.8055 20.106 36.3128 18.715 38.3347C17.324 40.3565 16.6378 42.7803 16.7625 45.2313C16.8872 47.6823 17.8159 50.0239 19.4049 51.8941C20.9939 53.7644 23.1548 55.0591 25.5535 55.578C27.9521 56.097 30.4549 55.8113 32.6749 54.7652C34.8949 53.719 36.7084 51.9707 37.8351 49.7904C38.9618 47.6102 39.3389 45.1195 38.908 42.7035C38.4772 40.2875 37.2624 38.0806 35.4515 36.4243" fill="black"/>
</svg>
